<svg width="213" height="64" viewBox="0 0 213 64" fill="none" xmlns="http://www.w3.org/2000/svg">
<path d="M182.31 56.52H189.87V62.82H182.31V56.52Z" fill="#121723"/>
<path d="M159.001 62.82H150.811L161.941 33.42H170.341L181.471 62.82H173.281L171.391 57.57H160.891L159.001 62.82ZM162.781 52.11H169.501L166.141 42.24L162.781 52.11Z" fill="#121723"/>
<path d="M146.829 33C147.529 33 148.789 33.14 150.609 33.42V39.09H148.929C148.509 39.09 148.131 39.23 147.795 39.51C147.459 39.762 147.207 40.042 147.039 40.35L143.049 47.91L151.239 62.82H143.259L136.749 50.85H132.969V62.82H125.409V33.42H132.969V44.97H136.749L140.949 36.99C141.565 35.814 142.321 34.862 143.217 34.134C144.141 33.378 145.345 33 146.829 33Z" fill="#121723"/>
<path d="M112.806 53.16C109.446 53.44 106.268 53.58 103.272 53.58C100.304 53.58 98.1761 52.936 96.8881 51.648C95.6001 50.36 94.9561 48.344 94.9561 45.6V33.42H102.516V45.6C102.516 46.244 102.698 46.762 103.062 47.154C103.454 47.518 103.972 47.7 104.616 47.7C106.912 47.7 109.642 47.56 112.806 47.28V33.42H120.366V62.82H112.806V53.16Z" fill="#121723"/>
<path d="M86.1165 41.4C86.1165 39.72 85.2765 38.88 83.5965 38.88H76.4565C74.7765 38.88 73.9365 39.72 73.9365 41.4V54.84C73.9365 56.52 74.7765 57.36 76.4565 57.36H83.5965C85.2765 57.36 86.1165 56.52 86.1165 54.84V41.4ZM93.6765 54.84C93.6765 57.78 93.0045 59.922 91.6605 61.266C90.3445 62.582 88.2165 63.24 85.2765 63.24H74.7765C71.8365 63.24 69.6945 62.582 68.3505 61.266C67.0345 59.922 66.3765 57.78 66.3765 54.84V41.4C66.3765 38.46 67.0345 36.332 68.3505 35.016C69.6945 33.672 71.8365 33 74.7765 33H85.2765C88.2165 33 90.3445 33.672 91.6605 35.016C93.0045 36.332 93.6765 38.46 93.6765 41.4V54.84Z" fill="#121723"/>
<path d="M57.5515 62.82H49.9915V39.3H41.1715V33.42H66.3715V39.3H57.5515V62.82Z" fill="#121723"/>
<path d="M25.62 62.82H18.06V44.76L7.98 62.82H0V33.42H7.56V51.48L17.64 33.42H25.62V62.82Z" fill="#121723"/>
<path d="M181.26 17.85V12.39H212.34V17.85H181.26Z" fill="#121723"/>
<path d="M148.49 10.5H158.15C161.09 10.5 163.218 11.172 164.534 12.516C165.878 13.832 166.55 15.96 166.55 18.9V21.42C166.55 24.36 165.878 26.502 164.534 27.846C163.218 29.162 161.09 29.82 158.15 29.82H140.93V0.419983H148.49V10.5ZM177.47 29.82H169.91V0.419983H177.47V29.82ZM158.99 18.9C158.99 17.22 158.15 16.38 156.47 16.38H148.49V23.94H156.47C158.15 23.94 158.99 23.1 158.99 21.42V18.9Z" fill="#121723"/>
<path d="M137.565 29.4C131.321 29.96 126.141 30.24 122.025 30.24C119.281 30.24 117.265 29.596 115.977 28.308C114.689 27.02 114.045 25.004 114.045 22.26V8.81998C114.045 5.87998 114.703 3.75198 116.019 2.43598C117.363 1.09198 119.505 0.419983 122.445 0.419983H137.565V6.29998H124.125C122.445 6.29998 121.605 7.13998 121.605 8.81998V22.26C121.605 22.904 121.787 23.422 122.151 23.814C122.543 24.178 123.033 24.36 123.621 24.36C124.209 24.36 124.853 24.36 125.553 24.36C126.253 24.332 126.981 24.304 127.737 24.276C128.493 24.248 129.249 24.22 130.005 24.192C130.789 24.164 131.783 24.108 132.987 24.024C134.219 23.94 135.745 23.842 137.565 23.73V29.4Z" fill="#121723"/>
<path d="M111.52 29.4C105.276 29.96 100.096 30.24 95.9799 30.24C93.2359 30.24 91.2199 29.596 89.9319 28.308C88.6439 27.02 87.9999 25.004 87.9999 22.26V8.81998C87.9999 5.87998 88.6579 3.75198 89.9739 2.43598C91.3179 1.09198 93.4599 0.419983 96.3999 0.419983H111.52V6.29998H98.0799C96.3999 6.29998 95.5599 7.13998 95.5599 8.81998V22.26C95.5599 22.904 95.7419 23.422 96.1059 23.814C96.4979 24.178 96.9879 24.36 97.5759 24.36C98.1639 24.36 98.8079 24.36 99.5079 24.36C100.208 24.332 100.936 24.304 101.692 24.276C102.448 24.248 103.204 24.22 103.96 24.192C104.744 24.164 105.738 24.108 106.942 24.024C108.174 23.94 109.7 23.842 111.52 23.73V29.4Z" fill="#121723"/>
<path d="M77.0602 8.4C77.0602 6.72 76.2202 5.88 74.5402 5.88H67.4002C65.7202 5.88 64.8802 6.72 64.8802 8.4V21.84C64.8802 23.52 65.7202 24.36 67.4002 24.36H74.5402C76.2202 24.36 77.0602 23.52 77.0602 21.84V8.4ZM84.6202 21.84C84.6202 24.78 83.9482 26.922 82.6042 28.266C81.2882 29.582 79.1602 30.24 76.2202 30.24H65.7202C62.7802 30.24 60.6382 29.582 59.2942 28.266C57.9782 26.922 57.3202 24.78 57.3202 21.84V8.4C57.3202 5.46 57.9782 3.332 59.2942 2.016C60.6382 0.672 62.7802 0 65.7202 0H76.2202C79.1602 0 81.2882 0.672 82.6042 2.016C83.9482 3.332 84.6202 5.46 84.6202 8.4V21.84Z" fill="#121723"/>
<path d="M28.3418 0.419983H45.9818C48.9218 0.419983 51.0498 1.09198 52.3658 2.43598C53.7098 3.75198 54.3818 5.87998 54.3818 8.81998V13.02C54.3818 15.96 53.7098 18.102 52.3658 19.446C51.0498 20.762 48.9218 21.42 45.9818 21.42H35.9018V29.82H28.3418V0.419983ZM46.8218 8.81998C46.8218 7.13998 45.9818 6.29998 44.3018 6.29998H35.9018V15.54H44.3018C45.9818 15.54 46.8218 14.7 46.8218 13.02V8.81998Z" fill="#121723"/>
<path d="M21.42 0C22.12 0 23.38 0.14 25.2 0.42V6.09H23.52C23.1 6.09 22.722 6.23 22.386 6.51C22.05 6.762 21.798 7.042 21.63 7.35L17.64 14.91L25.83 29.82H17.85L11.34 17.85H7.56V29.82H0V0.42H7.56V11.97H11.34L15.54 3.99C16.156 2.814 16.912 1.862 17.808 1.134C18.732 0.378 19.936 0 21.42 0Z" fill="#121723"/>
</svg>
